<!DOCTYPE svg PUBLIC "-//W3C//DTD SVG 1.1//EN" "https://www.w3.org/Graphics/SVG/1.1/DTD/svg11.dtd"><svg xmlns="http://www.w3.org/2000/svg" id="sfn-svg" class="sfn-workflow-graph" width="434" height="974">  
<g transform="translate(14.5,19.625)"><g class="nodes"><g class="node-container" transform="translate(283.46875,18.25)"><g class="node anchor"><circle class="shape" x="-15.875" y="-8.25" r="25.875"/><text class="label"><tspan xml:space="preserve" text-anchor="middle" alignment-baseline="central">Start</tspan></text></g></g><g class="node-container" transform="translate(283.46875,919.5625)"><g class="node anchor"><circle class="shape" x="-12.1875" y="-8.25" r="22.1875"/><text class="label"><tspan xml:space="preserve" text-anchor="middle" alignment-baseline="central">End</tspan></text></g></g><g class="node-container" transform="translate(283.46875,79.78125)"><g class="node state Pass NotYetStarted"><rect class="shape" rx="5" ry="5" x="-42.109375" y="-18.28125" width="84.21875" height="36.5625"/><text class="label"><tspan xml:space="preserve" text-anchor="middle" alignment-baseline="central">Fill Config</tspan></text></g></g><g class="node-container" transform="translate(283.46875,141.34375)"><g class="node state Pass NotYetStarted"><rect class="shape" rx="5" ry="5" x="-55.5" y="-18.28125" width="111" height="36.5625"/><text class="label"><tspan xml:space="preserve" text-anchor="middle" alignment-baseline="central">Restart Config</tspan></text></g></g><g class="node-container" transform="translate(283.46875,202.875)"><g class="node state Task NotYetStarted"><rect class="shape" rx="5" ry="5" x="-70.59375" y="-18.25" width="141.1875" height="36.5"/><text class="label"><tspan xml:space="preserve" text-anchor="middle" alignment-baseline="central">Get Taskexecutions</tspan></text></g></g><g class="node-container" transform="translate(177.3125,376.6875)"><g class="node state Map NotYetStarted Container" transform="translate(-169.8125,-130.5625)"><rect class="shape" rx="5" ry="5" x="-10" y="-10" width="337.625" height="259.125"/><rect class="shape" rx="5" ry="5" x="-5" y="-5" width="338.625" height="260.125"/><rect class="shape" rx="5" ry="5" x="0" y="0" width="339.625" height="261.125"/><g class="branches" transform="translate(20,20)"><g class="branch" transform="translate(0,0)"><g class="nodes"><g class="node-container" transform="translate(177.0546875,18.25)"><g class="node state Task NotYetStarted"><rect class="shape" rx="5" ry="5" x="-81.359375" y="-18.25" width="162.71875" height="36.5"/><text class="label"><tspan xml:space="preserve" text-anchor="middle" alignment-baseline="central">Convert Taskexecution</tspan></text></g></g><g class="node-container" transform="translate(103.703125,79.78125)"><g class="node state Task NotYetStarted"><rect class="shape" rx="5" ry="5" x="-103.703125" y="-18.28125" width="207.40625" height="36.5625"/><text class="label"><tspan xml:space="preserve" text-anchor="middle" alignment-baseline="central">Publish message to SNS topic</tspan></text></g></g><g class="node-container" transform="translate(250.40625,141.3125)"><g class="node state Task NotYetStarted"><rect class="shape" rx="5" ry="5" x="-49.21875" y="-18.25" width="98.4375" height="36.5"/><text class="label"><tspan xml:space="preserve" text-anchor="middle" alignment-baseline="central">Report Error</tspan></text></g></g><g class="node-container" transform="translate(103.703125,141.3125)"><g class="node state Task NotYetStarted"><rect class="shape" rx="5" ry="5" x="-57.484375" y="-18.25" width="114.96875" height="36.5"/><text class="label"><tspan xml:space="preserve" text-anchor="middle" alignment-baseline="central">Report Success</tspan></text></g></g><g class="node-container" transform="translate(177.0546875,202.84375)"><g class="node state Pass NotYetStarted"><rect class="shape" rx="5" ry="5" x="-85.53125" y="-18.28125" width="171.0625" height="36.5625"/><text class="label"><tspan xml:space="preserve" text-anchor="middle" alignment-baseline="central">One Message Processed</tspan></text></g></g></g><g class="edges"><g class="edge"><path class="path" marker-end="url(#arrowhead20)" d="M133.52083333333334,36.5L128.55121527777777,38.58333333333333C123.58159722222221,40.666666666666664,113.6423611111111,44.83333333333333,108.67274305555554,49C103.70312499999999,53.166666666666664,103.70312499999999,57.33333333333333,103.70312499999997,59.416666666666664L103.703125,61.5" style="fill: none;"/><defs><marker id="arrowhead20" viewBox="0 0 10 10" refX="9" refY="5" markerUnits="strokeWidth" markerWidth="8" markerHeight="6" orient="auto"><path d="M 0 0 L 10 5 L 0 10 z"/></marker></defs></g><g class="edge"><path class="path" marker-end="url(#arrowhead21)" d="M220.58854166666666,36.5L225.55815972222223,38.58333333333333C230.52777777777777,40.666666666666664,240.46701388888889,44.83333333333333,245.43663194444446,52.046875C250.40625,59.260416666666664,250.40625,69.52083333333333,250.40625,79.78125C250.40625,90.04166666666666,250.40625,100.30208333333333,250.40625,107.515625C250.40625,114.72916666666666,250.40625,118.89583333333331,250.40625,120.97916666666666L250.40625,123.0625" style="fill: none;"/><defs><marker id="arrowhead21" viewBox="0 0 10 10" refX="9" refY="5" markerUnits="strokeWidth" markerWidth="8" markerHeight="6" orient="auto"><path d="M 0 0 L 10 5 L 0 10 z"/></marker></defs></g><g class="edge"><path class="path" marker-end="url(#arrowhead22)" d="M103.703125,98.0625L103.70312499999997,100.14583333333333C103.70312499999999,102.22916666666666,103.70312499999999,106.39583333333333,103.70312499999997,110.5625C103.70312499999999,114.72916666666666,103.70312499999999,118.89583333333331,103.70312499999997,120.97916666666666L103.703125,123.0625" style="fill: none;"/><defs><marker id="arrowhead22" viewBox="0 0 10 10" refX="9" refY="5" markerUnits="strokeWidth" markerWidth="8" markerHeight="6" orient="auto"><path d="M 0 0 L 10 5 L 0 10 z"/></marker></defs></g><g class="edge"><path class="path" marker-end="url(#arrowhead23)" d="M103.703125,159.5625L103.70312499999997,161.64583333333334C103.70312499999999,163.72916666666666,103.70312499999999,167.89583333333331,108.6676977580372,172.06249999999997C113.63227051607444,176.22916666666666,123.5614160321489,180.39583333333331,128.52598879018612,182.47916666666666L133.49056154822335,184.5625" style="fill: none;"/><defs><marker id="arrowhead23" viewBox="0 0 10 10" refX="9" refY="5" markerUnits="strokeWidth" markerWidth="8" markerHeight="6" orient="auto"><path d="M 0 0 L 10 5 L 0 10 z"/></marker></defs></g><g class="edge"><path class="path" marker-end="url(#arrowhead24)" d="M250.40625,159.5625L250.40625,161.64583333333334C250.40625,163.72916666666666,250.40625,167.89583333333331,245.44167724196276,172.06249999999997C240.47710448392553,176.22916666666666,230.5479589678511,180.39583333333331,225.58338620981385,182.47916666666666L220.61881345177665,184.5625" style="fill: none;"/><defs><marker id="arrowhead24" viewBox="0 0 10 10" refX="9" refY="5" markerUnits="strokeWidth" markerWidth="8" markerHeight="6" orient="auto"><path d="M 0 0 L 10 5 L 0 10 z"/></marker></defs></g></g></g></g><path class="path" marker-end="url(#arrowhead25)" d="M169.8125,0L169.8125,1.6666666666666665C169.8125,3.333333333333333,169.8125,6.666666666666666,174.35286458333331,8.333333333333332C178.89322916666666,10,187.97395833333331,10,192.51432291666666,11.666666666666664C197.0546875,13.333333333333332,197.0546875,16.666666666666664,197.05468749999997,18.333333333333332L197.0546875,20" style="fill: none;"/></g></g><g class="node-container" transform="translate(177.3125,550.5)"><g class="node state Task NotYetStarted"><rect class="shape" rx="5" ry="5" x="-110.390625" y="-18.25" width="220.78125" height="36.5"/><text class="label"><tspan xml:space="preserve" text-anchor="middle" alignment-baseline="central">Count ProcessedTaksExecutions</tspan></text></g></g><g class="node-container" transform="translate(177.3125,612)"><g class="node state Choice NotYetStarted"><rect class="shape" rx="5" ry="5" x="-78.546875" y="-18.25" width="157.09375" height="36.5"/><text class="label"><tspan xml:space="preserve" text-anchor="middle" alignment-baseline="central">More Taskexecutions?</tspan></text></g></g><g class="node-container" transform="translate(283.46875,858.0625)"><g class="node state Succeed NotYetStarted"><rect class="shape" rx="5" ry="5" x="-28.5" y="-18.25" width="57" height="36.5"/><text class="label"><tspan xml:space="preserve" text-anchor="middle" alignment-baseline="central">Finish</tspan></text></g></g><g class="node-container" transform="translate(239.1015625,673.53125)"><g class="node state Task NotYetStarted"><rect class="shape" rx="5" ry="5" x="-88.578125" y="-18.28125" width="177.15625" height="36.5625"/><text class="label"><tspan xml:space="preserve" text-anchor="middle" alignment-baseline="central">Next Taskexecution Page</tspan></text></g></g><g class="node-container" transform="translate(345.2578125,735.0625)"><g class="node state Choice NotYetStarted"><rect class="shape" rx="5" ry="5" x="-59.984375" y="-18.25" width="119.96875" height="36.5"/><text class="label"><tspan xml:space="preserve" text-anchor="middle" alignment-baseline="central">Should Restart?</tspan></text></g></g><g class="node-container" transform="translate(345.2578125,796.5625)"><g class="node state Task NotYetStarted"><rect class="shape" rx="5" ry="5" x="-32.828125" y="-18.25" width="65.65625" height="36.5"/><text class="label"><tspan xml:space="preserve" text-anchor="middle" alignment-baseline="central">Restart</tspan></text></g></g></g><g class="edges"><g class="edge"><path class="path" marker-end="url(#arrowhead26)" d="M283.46875,98.0625L283.46875,100.14583333333333C283.46875,102.22916666666666,283.46875,106.39583333333333,283.46875,110.5625C283.46875,114.72916666666666,283.46875,118.89583333333331,283.46875,120.97916666666666L283.46875,123.0625" style="fill: none;"/><defs><marker id="arrowhead26" viewBox="0 0 10 10" refX="9" refY="5" markerUnits="strokeWidth" markerWidth="8" markerHeight="6" orient="auto"><path d="M 0 0 L 10 5 L 0 10 z"/></marker></defs></g><g class="edge"><path class="path" marker-end="url(#arrowhead27)" d="M283.46875,44.125L283.46875,44.93749999999999C283.46875,45.75,283.46875,47.375,283.46875,50.27083333333333C283.46875,53.166666666666664,283.46875,57.33333333333333,283.46875,59.416666666666664L283.46875,61.5" style="fill: none;"/><defs><marker id="arrowhead27" viewBox="0 0 10 10" refX="9" refY="5" markerUnits="strokeWidth" markerWidth="8" markerHeight="6" orient="auto"><path d="M 0 0 L 10 5 L 0 10 z"/></marker></defs></g><g class="edge"><path class="path" marker-end="url(#arrowhead28)" d="M283.46875,159.625L283.46875,161.70833333333331C283.46875,163.79166666666666,283.46875,167.95833333333331,283.46875,172.125C283.46875,176.29166666666666,283.46875,180.45833333333331,283.46875,182.54166666666666L283.46875,184.625" style="fill: none;"/><defs><marker id="arrowhead28" viewBox="0 0 10 10" refX="9" refY="5" markerUnits="strokeWidth" markerWidth="8" markerHeight="6" orient="auto"><path d="M 0 0 L 10 5 L 0 10 z"/></marker></defs></g><g class="edge"><path class="path" marker-end="url(#arrowhead29)" d="M220.46544715447155,221.125L213.27328929539294,223.20833333333331C206.08113143631434,225.29166666666666,191.69681571815715,229.45833333333331,184.5046578590786,233.625C177.3125,237.79166666666666,177.3125,241.95833333333331,177.3125,244.04166666666663L177.3125,246.125" style="fill: none;"/><defs><marker id="arrowhead29" viewBox="0 0 10 10" refX="9" refY="5" markerUnits="strokeWidth" markerWidth="8" markerHeight="6" orient="auto"><path d="M 0 0 L 10 5 L 0 10 z"/></marker></defs></g><g class="edge"><path class="path" marker-end="url(#arrowhead30)" d="M177.3125,507.25L177.3125,509.33333333333326C177.3125,511.41666666666663,177.3125,515.5833333333333,177.3125,519.75C177.3125,523.9166666666666,177.3125,528.0833333333333,177.3125,530.1666666666666L177.3125,532.25" style="fill: none;"/><defs><marker id="arrowhead30" viewBox="0 0 10 10" refX="9" refY="5" markerUnits="strokeWidth" markerWidth="8" markerHeight="6" orient="auto"><path d="M 0 0 L 10 5 L 0 10 z"/></marker></defs></g><g class="edge"><path class="path" marker-end="url(#arrowhead31)" d="M177.3125,568.75L177.3125,570.8333333333333C177.3125,572.9166666666666,177.3125,577.0833333333333,177.3125,581.25C177.3125,585.4166666666666,177.3125,589.5833333333333,177.3125,591.6666666666666L177.3125,593.75" style="fill: none;"/><defs><marker id="arrowhead31" viewBox="0 0 10 10" refX="9" refY="5" markerUnits="strokeWidth" markerWidth="8" markerHeight="6" orient="auto"><path d="M 0 0 L 10 5 L 0 10 z"/></marker></defs></g><g class="edge"><path class="path" marker-end="url(#arrowhead32)" d="M140.6409425813008,630.25L136.45469173441734,632.3333333333333C132.26844088753387,634.4166666666666,123.89593919376694,638.5833333333333,119.70968834688347,645.796875C115.5234375,653.0104166666666,115.5234375,663.2708333333333,115.5234375,673.5312499999999C115.5234375,683.7916666666666,115.5234375,694.0520833333333,115.5234375,704.3072916666666C115.5234375,714.5625,115.5234375,724.8125,115.5234375,735.0624999999999C115.5234375,745.3125,115.5234375,755.5625,115.5234375,765.8124999999999C115.5234375,776.0625,115.5234375,786.3125,115.5234375,796.5624999999999C115.5234375,806.8125,115.5234375,817.0625,138.76432291666666,826.4427972507791C162.00520833333331,835.8230945015583,208.48697916666666,844.3336890031167,231.72786458333331,848.5889862538959L254.96875,852.8442835046751" style="fill: none;"/><defs><marker id="arrowhead32" viewBox="0 0 10 10" refX="9" refY="5" markerUnits="strokeWidth" markerWidth="8" markerHeight="6" orient="auto"><path d="M 0 0 L 10 5 L 0 10 z"/></marker></defs></g><g class="edge"><path class="path" marker-end="url(#arrowhead33)" d="M213.9840574186992,630.25L218.17030826558263,632.3333333333333C222.35655911246613,634.4166666666666,230.72906080623306,638.5833333333333,234.9153116531165,642.75C239.1015625,646.9166666666666,239.1015625,651.0833333333333,239.10156249999997,653.1666666666666L239.1015625,655.25" style="fill: none;"/><defs><marker id="arrowhead33" viewBox="0 0 10 10" refX="9" refY="5" markerUnits="strokeWidth" markerWidth="8" markerHeight="6" orient="auto"><path d="M 0 0 L 10 5 L 0 10 z"/></marker></defs></g><g class="edge"><path class="path" marker-end="url(#arrowhead34)" d="M239.1015625,691.8125L239.10156249999997,693.8958333333333C239.1015625,695.9791666666666,239.1015625,700.1458333333333,246.79687499999997,704.4582474732607C254.4921875,708.770661613188,269.8828125,713.2288232263761,277.578125,715.4579040329702L285.2734375,717.6869848395643" style="fill: none;"/><defs><marker id="arrowhead34" viewBox="0 0 10 10" refX="9" refY="5" markerUnits="strokeWidth" markerWidth="8" markerHeight="6" orient="auto"><path d="M 0 0 L 10 5 L 0 10 z"/></marker></defs></g><g class="edge"><path class="path" marker-end="url(#arrowhead35)" d="M345.2578125,753.3125L345.2578125,755.3958333333333C345.2578125,757.4791666666666,345.2578125,761.6458333333333,345.2578125,765.8125C345.2578125,769.9791666666666,345.2578125,774.1458333333333,345.2578125,776.2291666666666L345.2578125,778.3125" style="fill: none;"/><defs><marker id="arrowhead35" viewBox="0 0 10 10" refX="9" refY="5" markerUnits="strokeWidth" markerWidth="8" markerHeight="6" orient="auto"><path d="M 0 0 L 10 5 L 0 10 z"/></marker></defs></g><g class="edge"><path class="path" marker-end="url(#arrowhead36)" d="M381.9293699186992,716.8125L386.1156207655826,714.7291666666666C390.30187161246613,712.6458333333333,398.67437330623306,708.4791666666666,402.8606241531165,701.265625C407.046875,694.0520833333333,407.046875,683.7916666666666,407.04687499999994,673.53125C407.046875,663.2708333333333,407.046875,653.0104166666666,407.04687499999994,642.7552083333334C407.046875,632.5,407.046875,622.25,407.04687499999994,612C407.046875,601.75,407.046875,591.5,407.04687499999994,581.25C407.046875,571,407.046875,560.75,407.04687499999994,550.5C407.046875,540.25,407.046875,530,407.04687499999994,501.03125C407.046875,472.0625,407.046875,424.375,407.04687499999994,376.6875C407.046875,329,407.046875,281.3125,398.2161458333333,255.27139572006575C389.38541666666663,229.2302914401315,371.7239583333333,224.835582880263,362.8932291666667,222.63822860032874L354.0625,220.4408743203945" style="fill: none;"/><defs><marker id="arrowhead36" viewBox="0 0 10 10" refX="9" refY="5" markerUnits="strokeWidth" markerWidth="8" markerHeight="6" orient="auto"><path d="M 0 0 L 10 5 L 0 10 z"/></marker></defs></g><g class="edge"><path class="path" marker-end="url(#arrowhead37)" d="M345.2578125,814.8125L345.2578125,816.8958333333331C345.2578125,818.9791666666665,345.2578125,823.1458333333333,339.7096354166667,827.9902774265604C334.1614583333333,832.8347215197875,323.06510416666663,838.3569430395751,317.5169270833333,841.118053799469L311.96875,843.8791645593627" style="fill: none;"/><defs><marker id="arrowhead37" viewBox="0 0 10 10" refX="9" refY="5" markerUnits="strokeWidth" markerWidth="8" markerHeight="6" orient="auto"><path d="M 0 0 L 10 5 L 0 10 z"/></marker></defs></g><g class="edge"><path class="path" marker-end="url(#arrowhead38)" d="M283.46875,876.3125L283.46875,878.3958333333331C283.46875,880.4791666666665,283.46875,884.6458333333333,283.46875,888.15625C283.46875,891.6666666666666,283.46875,894.5208333333333,283.46875,895.9479166666666L283.46875,897.375" style="fill: none;"/><defs><marker id="arrowhead38" viewBox="0 0 10 10" refX="9" refY="5" markerUnits="strokeWidth" markerWidth="8" markerHeight="6" orient="auto"><path d="M 0 0 L 10 5 L 0 10 z"/></marker></defs></g></g></g><style xmlns="http://www.w3.org/1999/xhtml">.node &gt; .shape {stroke: #555555;stroke-width: 0.6px;fill: #FFFFFF;} path {stroke: #555;background-color: #555;stroke-width: 1px;} .node.state.NotYetStarted &gt; .shape,.node.state.Container &gt; .shape {stroke-dasharray: 5 2;} .node.state.Failed &gt; .shape,rect.legend.Failed {fill: #DE322F;} .node.state.CaughtError &gt; .shape,rect.legend.CaughtError {fill: #FFA500;} .node.state.Succeeded &gt; .shape,rect.legend.Succeeded {fill: #2BD62E;} .node.state.InProgress &gt; .shape,rect.legend.InProgress {fill: #53c9ed;} .node.state.Cancelled &gt; .shape,rect.legend.Cancelled {fill: #dddddd;} .node.anchor &gt; .shape {fill: #FFDA75;} .node.state.hovered:not(.selected):not(.NotYetStarted) &gt; .shape,.node.selected &gt; .shape {stroke: #555555;stroke-width: 2px;} .node.state.Container.Failed &gt; .shape {fill: #EE9592;} .node.state.Container.CaughtError &gt; .shape {fill: #FFD27F;} .node.state.Container.Succeeded &gt; .shape {fill: #91EA9A;} .node.state.Container.InProgress &gt; .shape {fill :#A9E4F7;} .node.state.Container.Cancelled &gt; .shape {fill: #EEEEEE;} marker {fill: #555555;} .node.anchor,.node.state.NotYetStarted {cursor: default;} .node.state {cursor: pointer;} tspan .label {font-weight: normal;font-size: 12px;text-shadow: none;} </style></svg>